<?xml version="1.0" encoding="UTF-8"?>
<svg version="1.1" xmlns="http://www.w3.org/2000/svg" width="44" height="45">
<path d="M0 0 C0.73573242 -0.00241196 1.47146484 -0.00482391 2.22949219 -0.00730896 C3.77935191 -0.0063329 5.32924753 0.00700352 6.87890625 0.03198242 C9.24339913 0.06631042 11.60415414 0.0526294 13.96875 0.03320312 C15.47918248 0.04010204 16.98960537 0.04977486 18.5 0.0625 C19.5533252 0.0550602 19.5533252 0.0550602 20.62792969 0.04747009 C23.96353133 0.12700117 26.22321069 0.61498043 29.19287109 2.15869141 C32.00928265 5.54065819 31.97085733 8.50381048 31.9140625 12.71875 C31.91884613 13.50028946 31.92362976 14.28182892 31.92855835 15.08705139 C31.93195479 16.73700985 31.92276993 18.38703584 31.90185547 20.03686523 C31.87511674 22.55541032 31.90158742 25.06948516 31.93359375 27.58789062 C31.93028889 29.19402021 31.92388108 30.80014703 31.9140625 32.40625 C31.92418365 33.15535141 31.93430481 33.90445282 31.94473267 34.67625427 C31.86087757 38.44027641 31.3480653 40.48710378 29.19287109 43.60351562 C25.57066994 46.09644583 22.7526657 46.33810499 18.5 46.2578125 C17.76426758 46.26022446 17.02853516 46.26263641 16.27050781 46.26512146 C14.72064809 46.2641454 13.17075247 46.25080898 11.62109375 46.22583008 C9.25660087 46.19150208 6.89584586 46.2051831 4.53125 46.22460938 C3.02081752 46.21771046 1.51039463 46.20803764 0 46.1953125 C-0.7022168 46.20027237 -1.40443359 46.20523224 -2.12792969 46.21034241 C-5.46353133 46.13081133 -7.72321069 45.64283207 -10.69287109 44.09912109 C-13.50928265 40.71715431 -13.47085733 37.75400202 -13.4140625 33.5390625 C-13.41884613 32.75752304 -13.42362976 31.97598358 -13.42855835 31.17076111 C-13.43195479 29.52080265 -13.42276993 27.87077666 -13.40185547 26.22094727 C-13.37511674 23.70240218 -13.40158742 21.18832734 -13.43359375 18.66992188 C-13.43028889 17.06379229 -13.42388108 15.45766547 -13.4140625 13.8515625 C-13.42418365 13.10246109 -13.43430481 12.35335968 -13.44473267 11.58155823 C-13.36087757 7.81753609 -12.8480653 5.77070872 -10.69287109 2.65429688 C-7.07066994 0.16136667 -4.2526657 -0.08029249 0 0 Z " fill="#FF9603" transform="translate(12.75,-0.62890625)"/>
<path d="M0 0 C1.17825358 0.90172468 2.34231577 1.82201502 3.5 2.75 C4.1496875 3.26046875 4.799375 3.7709375 5.46875 4.296875 C7 6 7 6 7 10 C5.36799079 13.3596173 3.2907796 15.26373111 0 17 C-5.61532447 17.88150723 -11.35771583 17.39984691 -17 17 C-16.04270084 15.87411986 -15.08412105 14.7493285 -14.125 13.625 C-13.59132813 12.99851562 -13.05765625 12.37203125 -12.5078125 11.7265625 C-9.27507448 8.02482622 -9.27507448 8.02482622 -6.8359375 7.8046875 C-5.61777344 7.83949219 -5.61777344 7.83949219 -4.375 7.875 C-3.14910156 7.90207031 -3.14910156 7.90207031 -1.8984375 7.9296875 C-0.95871094 7.96449219 -0.95871094 7.96449219 0 8 C0 5.36 0 2.72 0 0 Z " fill="#FFFCFA" transform="translate(27,19)"/>
<path d="M0 0 C-1.65639384 3.39846323 -2.8368568 5.78579976 -6 8 C-9.35927054 8.3380398 -12.63578059 8.23112958 -16 8 C-16 10.97 -16 13.94 -16 17 C-22.75 11.375 -22.75 11.375 -25 8 C-18.49340134 -1.88120745 -10.66919844 -0.87293442 0 0 Z " fill="#FFFBF6" transform="translate(34,10)"/>
</svg>
